<?xml version="1.0" standalone="no"?>
<!DOCTYPE svg PUBLIC "-//W3C//DTD SVG 20010904//EN"
 "http://www.w3.org/TR/2001/REC-SVG-20010904/DTD/svg10.dtd">
<svg version="1.0" xmlns="http://www.w3.org/2000/svg"
 width="512.000000pt" height="512.000000pt" viewBox="0 0 512.000000 512.000000"
 preserveAspectRatio="xMidYMid meet">

<g transform="translate(0.000000,512.000000) scale(0.100000,-0.100000)"
fill="#000000" stroke="none">
<path d="M1838 5110 c-195 -33 -384 -157 -492 -323 l-49 -75 -76 -12 c-155
-25 -311 -100 -433 -209 -104 -92 -196 -249 -240 -406 -22 -78 -22 -93 -23
-647 l0 -567 22 -22 c29 -29 77 -29 106 0 l22 22 6 582 c6 632 3 606 66 732
106 212 315 353 552 372 47 3 83 12 94 21 10 9 34 47 54 85 43 82 127 170 209
219 271 164 623 84 797 -181 61 -91 82 -99 165 -57 110 55 233 53 345 -7 71
-37 120 -91 158 -173 15 -33 35 -66 44 -74 27 -22 68 -15 122 22 201 138 476
47 560 -186 22 -61 19 -180 -7 -249 -46 -123 -177 -221 -311 -233 -81 -8 -183
19 -247 65 -63 46 -86 49 -122 13 l-30 -30 0 -325 c0 -313 -1 -325 -21 -351
-27 -35 -86 -36 -117 -3 -22 23 -22 27 -22 394 0 233 -4 382 -10 399 -18 47
-36 53 -140 47 -111 -6 -171 10 -260 71 -39 27 -60 36 -77 31 -13 -3 -59 -41
-101 -84 -167 -168 -393 -222 -619 -145 -98 33 -128 28 -149 -21 -8 -19 -14
-47 -14 -62 0 -42 -43 -126 -87 -170 -65 -65 -123 -88 -224 -88 -77 0 -91 3
-147 33 -75 38 -95 40 -127 7 l-25 -24 0 -657 c0 -645 0 -657 -21 -693 -30
-53 -65 -74 -129 -79 -65 -4 -108 18 -140 70 -18 30 -20 51 -20 241 0 232 -8
271 -56 283 -15 4 -38 3 -53 -2 -48 -17 -52 -40 -48 -284 3 -210 5 -229 26
-278 41 -92 163 -182 248 -182 l23 0 0 -532 c0 -675 4 -651 -167 -863 -101
-126 -123 -171 -122 -253 1 -103 51 -188 140 -237 l54 -30 715 -3 c533 -2 721
0 737 9 46 25 49 104 4 128 -13 8 -241 11 -706 11 -756 0 -736 -2 -775 62 -22
37 -26 79 -8 111 6 12 49 68 95 125 96 118 136 193 164 300 18 70 19 115 19
639 0 309 4 563 9 563 24 0 106 90 132 145 l29 60 0 599 c0 566 1 598 18 591
9 -5 58 -10 109 -13 154 -8 267 39 371 153 27 30 62 83 78 119 18 43 33 65 41
61 44 -16 160 -27 247 -22 158 8 296 60 413 153 32 26 63 53 70 62 11 13 19
12 71 -11 59 -27 118 -42 204 -52 l47 -6 3 -343 3 -343 30 -49 c37 -60 108
-109 169 -118 98 -15 203 41 248 131 22 46 23 59 26 305 l3 256 42 -13 c23 -7
54 -16 69 -19 l27 -6 3 -411 3 -411 29 -25 c35 -29 69 -25 104 13 21 23 22 34
22 165 l0 139 202 0 c231 0 267 -9 310 -78 l23 -37 3 -745 c3 -822 4 -801 -59
-854 -46 -39 -90 -46 -291 -46 l-188 0 0 609 0 610 -22 26 c-30 34 -81 37
-111 6 l-22 -22 0 -857 c0 -793 1 -862 18 -922 28 -102 81 -197 163 -295 123
-146 135 -176 94 -243 -39 -63 -27 -62 -695 -62 -592 0 -605 0 -625 -20 -30
-30 -27 -83 7 -110 26 -20 29 -21 657 -18 l631 3 54 30 c90 49 139 134 140
240 1 78 -26 136 -114 240 -112 133 -155 208 -167 295 l-3 25 255 5 c243 6
258 7 322 32 160 61 288 177 357 322 68 143 66 107 66 991 0 735 -1 805 -18
864 -66 240 -251 416 -490 465 -55 12 -134 16 -287 16 l-210 0 0 34 c0 32 3
34 46 45 242 61 412 322 375 574 -28 188 -170 357 -351 419 -98 34 -249 32
-345 -5 l-70 -27 -20 27 c-80 110 -181 184 -297 220 -73 23 -216 21 -291 -2
l-57 -19 -70 77 c-176 191 -425 278 -672 237z m2223 -1744 c128 -27 234 -102
309 -218 73 -112 71 -86 68 -993 l-3 -810 -37 -78 c-44 -91 -127 -181 -204
-220 -101 -51 -141 -57 -381 -57 l-223 0 0 79 0 79 223 4 c207 3 225 5 274 27
66 29 143 110 169 176 18 48 19 84 19 835 l0 785 -25 50 c-35 73 -105 138
-173 164 -52 19 -77 21 -272 21 l-215 0 0 85 0 85 203 0 c135 0 224 -5 268
-14z"/>
<path d="M2173 3155 c-16 -7 -33 -20 -37 -30 -3 -9 -6 -563 -6 -1231 0 -1201
0 -1214 20 -1234 31 -31 72 -30 108 3 l22 20 0 1217 0 1217 -22 20 c-33 29
-50 33 -85 18z"/>
<path d="M1530 2867 c-52 -26 -50 14 -47 -1123 2 -1028 3 -1063 21 -1083 29
-32 88 -29 115 5 21 27 21 29 21 1090 l0 1063 -22 25 c-29 31 -57 39 -88 23z"/>
<path d="M2792 2447 l-22 -23 0 -868 c0 -547 4 -874 10 -886 23 -43 116 -40
134 5 3 9 6 407 6 884 l0 868 -23 21 c-31 29 -77 29 -105 -1z"/>
</g>
</svg>
