<?xml version="1.0" standalone="no"?>
<!DOCTYPE svg PUBLIC "-//W3C//DTD SVG 20010904//EN"
 "http://www.w3.org/TR/2001/REC-SVG-20010904/DTD/svg10.dtd">
<svg version="1.0" xmlns="http://www.w3.org/2000/svg"
 width="100.000000pt" height="100.000000pt" viewBox="0 0 100.000000 100.000000"
 preserveAspectRatio="xMidYMid meet">

<g transform="translate(0.000000,100.000000) scale(0.100000,-0.100000)"
fill="#000000" stroke="none">
<path d="M395 943 c-16 -9 -75 -50 -129 -91 l-99 -75 -70 2 c-67 2 -69 1 -64
-19 8 -29 -13 -87 -24 -68 -6 9 -9 3 -9 -17 0 -59 16 -59 38 0 12 31 22 63 22
71 0 9 11 14 29 14 25 0 30 -5 35 -32 4 -18 15 -51 25 -73 l18 -40 23 73 c20
61 27 72 46 72 22 0 22 -1 -14 -110 -31 -91 -40 -109 -58 -110 -16 0 -25 14
-45 75 -13 41 -27 75 -30 75 -3 0 -16 -34 -30 -75 -18 -55 -29 -75 -41 -75
-15 0 -18 -10 -18 -65 0 -62 1 -65 24 -65 22 0 22 -2 12 -35 -6 -19 -17 -35
-23 -35 -7 0 -13 -7 -13 -15 0 -8 5 -15 11 -15 6 0 93 -61 193 -135 100 -74
196 -139 212 -145 64 -25 100 -8 300 140 179 133 191 140 235 140 l46 0 2 85
c0 50 -3 85 -9 85 -6 0 -10 8 -10 18 0 13 2 14 9 3 5 -8 9 20 10 73 1 74 -2
92 -19 117 -15 20 -17 29 -8 29 7 1 -4 10 -26 21 -21 11 -58 40 -82 64 l-43
44 -45 -25 -45 -25 -83 63 c-46 34 -99 71 -118 80 -42 22 -95 22 -135 1z m265
-155 c14 9 22 7 36 -9 9 -10 23 -19 29 -19 7 0 18 -6 24 -14 10 -12 8 -13 -11
-9 -13 3 -31 15 -41 27 -16 20 -18 20 -31 4 -12 -17 -14 -17 -31 2 -10 11 -21
17 -25 15 -4 -3 -14 2 -21 11 -12 14 -14 14 -20 -3 -7 -16 -8 -16 -8 0 -1 27
-18 20 -26 -10 -4 -16 -9 -23 -12 -16 -2 7 -11 9 -19 6 -8 -3 0 10 18 28 l33
34 44 -29 c35 -23 47 -27 61 -18z m-210 4 c3 -3 -3 -2 -12 1 -11 4 -18 1 -18
-6 0 -8 -4 -6 -10 3 -9 13 -10 13 -11 0 -1 -8 -1 -19 1 -25 1 -6 -4 -5 -10 1
-9 9 -9 17 1 32 11 17 17 19 33 10 12 -6 23 -13 26 -16z m400 -6 c14 -16 19
-26 13 -22 -8 4 -13 2 -14 -6 0 -7 -5 0 -11 16 -8 21 -13 25 -19 15 -7 -12 -9
-12 -9 0 0 11 -3 11 -15 1 -8 -7 -15 -8 -15 -3 0 6 10 15 23 20 12 6 22 10 22
9 0 0 11 -14 25 -30z m-520 -86 c0 -6 11 -32 24 -59 33 -69 40 -101 22 -101
-8 0 -18 9 -21 20 -5 15 -15 20 -45 20 -30 0 -40 -5 -45 -20 -3 -11 -13 -20
-20 -20 -10 0 -6 18 16 71 16 40 29 78 29 85 0 8 9 14 20 14 11 0 20 -5 20
-10z m97 -20 c6 -16 16 -30 21 -30 6 0 16 14 24 30 7 17 21 30 30 30 23 0 23
-3 -7 -50 -13 -21 -28 -57 -31 -79 -9 -54 -34 -56 -34 -3 0 25 -10 54 -30 85
-29 47 -29 47 -7 47 16 0 26 -9 34 -30z m183 20 c0 -6 11 -32 24 -59 33 -69
40 -101 22 -101 -8 0 -18 9 -21 20 -5 15 -15 20 -45 20 -30 0 -40 -5 -45 -20
-3 -11 -13 -20 -21 -20 -12 0 -12 6 2 38 9 20 24 58 33 84 11 33 22 48 34 48
9 0 17 -5 17 -10z m107 -20 c6 -16 16 -30 21 -30 6 0 16 14 24 30 7 17 21 30
30 30 23 0 23 -3 -7 -50 -13 -21 -28 -57 -31 -79 -9 -54 -34 -56 -34 -3 0 25
-10 54 -30 85 -29 47 -29 47 -7 47 16 0 26 -9 34 -30z m238 5 c36 -35 34 -88
-4 -126 -38 -38 -74 -38 -112 0 -33 33 -37 67 -14 111 17 32 27 38 73 39 22 1
41 -7 57 -24z m26 -219 c5 3 9 0 9 -6 0 -15 -23 -7 -26 8 -1 7 0 8 3 2 2 -5 9
-8 14 -4z m-142 -72 c0 -4 5 -11 13 -15 11 -8 11 -10 0 -18 -8 -4 -13 -11 -13
-15 1 -8 -766 -9 -780 -1 -12 8 -12 38 0 51 11 10 782 9 780 -2z m136 6 c-29
-11 -49 -37 -35 -45 5 -3 10 1 10 9 0 8 5 18 12 22 7 5 8 3 4 -5 -5 -7 0 -21
11 -33 11 -13 12 -18 3 -13 -8 5 -33 8 -56 6 -39 -2 -42 -1 -37 18 3 12 0 28
-7 36 -11 13 -4 15 51 14 44 0 58 -3 44 -9z m-522 -180 c-8 -28 -20 -34 -17
-7 3 28 2 27 13 27 5 0 7 -9 4 -20z m124 -15 c0 -8 -2 -13 -4 -11 -4 4 -63
-52 -63 -60 0 -11 22 -2 40 16 12 12 20 15 20 8 0 -7 -12 -21 -25 -31 -25 -18
-26 -17 -49 8 -23 25 -46 33 -46 16 0 -14 -37 -20 -49 -8 -16 16 -14 -6 2 -22
6 -8 -1 -5 -17 5 -16 10 -24 20 -17 22 6 2 11 10 11 17 0 10 13 13 45 11 25
-2 48 0 51 5 9 16 34 10 28 -6 -4 -8 -1 -15 5 -15 14 0 51 36 51 50 0 6 4 10
8 10 5 0 9 -7 9 -15z"/>
<path d="M296 638 c-9 -35 -8 -38 14 -38 11 0 20 3 20 8 0 19 -13 52 -20 52
-4 0 -10 -10 -14 -22z"/>
<path d="M576 638 c-9 -35 -8 -38 14 -38 11 0 20 3 20 8 0 19 -13 52 -20 52
-4 0 -10 -10 -14 -22z"/>
<path d="M873 679 c-48 -18 -36 -110 16 -117 30 -5 61 25 61 58 0 47 -36 74
-77 59z"/>
<path d="M62 370 c0 -14 2 -19 5 -12 2 6 2 18 0 25 -3 6 -5 1 -5 -13z"/>
<path d="M125 380 c-8 -13 3 -30 18 -30 7 0 6 4 -3 10 -13 9 -13 11 0 20 9 6
10 10 3 10 -6 0 -15 -4 -18 -10z"/>
<path d="M160 370 c0 -11 2 -20 4 -20 2 0 6 9 9 20 3 11 1 20 -4 20 -5 0 -9
-9 -9 -20z"/>
<path d="M190 372 c0 -23 30 -25 31 -3 0 10 2 12 6 4 2 -7 10 -13 16 -13 18 0
-10 23 -33 27 -14 2 -20 -3 -20 -15z"/>
<path d="M257 371 c3 -12 10 -21 15 -21 13 0 6 32 -9 37 -7 3 -9 -3 -6 -16z"/>
<path d="M316 382 c6 -4 14 -14 17 -22 4 -10 6 -8 6 8 1 15 -5 22 -16 22 -11
0 -14 -3 -7 -8z"/>
<path d="M360 371 c0 -14 5 -19 15 -14 17 6 15 25 -3 31 -7 2 -12 -5 -12 -17z"/>
<path d="M402 370 c0 -14 2 -19 5 -12 2 6 2 18 0 25 -3 6 -5 1 -5 -13z"/>
<path d="M509 373 c0 -11 -3 -13 -6 -5 -2 6 -9 12 -15 12 -7 0 -6 -5 1 -14 17
-20 51 -16 51 6 0 23 -30 24 -31 1z"/>
<path d="M550 370 c0 -25 17 -26 23 -2 4 16 5 16 6 0 1 -25 17 -23 17 2 0 14
-7 20 -23 20 -16 0 -23 -6 -23 -20z"/>
<path d="M619 388 c-5 -18 -6 -38 -1 -34 7 8 12 36 6 36 -2 0 -4 -1 -5 -2z"/>
<path d="M647 377 c-3 -8 1 -14 8 -14 7 0 11 6 8 14 -3 7 -6 13 -8 13 -2 0 -5
-6 -8 -13z"/>
<path d="M680 381 c0 -5 5 -13 10 -16 6 -3 10 -2 10 4 0 5 -4 13 -10 16 -5 3
-10 2 -10 -4z"/>
<path d="M720 381 c0 -5 5 -13 10 -16 6 -3 10 -2 10 4 0 5 -4 13 -10 16 -5 3
-10 2 -10 -4z"/>
<path d="M750 370 c0 -11 4 -20 9 -20 5 0 7 9 4 20 -3 11 -7 20 -9 20 -2 0 -4
-9 -4 -20z"/>
<path d="M90 369 c0 -5 5 -7 10 -4 6 3 10 8 10 11 0 2 -4 4 -10 4 -5 0 -10 -5
-10 -11z"/>
<path d="M290 372 c0 -12 19 -26 26 -19 2 2 -2 10 -11 17 -9 8 -15 8 -15 2z"/>
<path d="M426 371 c-3 -5 1 -11 9 -15 8 -3 15 -1 15 4 0 13 -18 22 -24 11z"/>
<path d="M795 370 c3 -5 8 -10 11 -10 2 0 4 5 4 10 0 6 -5 10 -11 10 -5 0 -7
-4 -4 -10z"/>
<path d="M10 748 c0 -26 4 -38 8 -30 8 12 4 72 -4 72 -2 0 -4 -19 -4 -42z"/>
</g>
</svg>
